<svg width="20" height="23" viewBox="0 0 20 23" fill="none" xmlns="http://www.w3.org/2000/svg">
<path d="M19 9.49997H1M14 1.49997V5.49997M6 1.49997V5.49997M5.8 21.5H14.2C15.8802 21.5 16.7202 21.5 17.362 21.173C17.9265 20.8854 18.3854 20.4264 18.673 19.8619C19 19.2202 19 18.3801 19 16.7V8.29997C19 6.61981 19 5.77973 18.673 5.138C18.3854 4.57351 17.9265 4.11457 17.362 3.82695C16.7202 3.49997 15.8802 3.49997 14.2 3.49997H5.8C4.11984 3.49997 3.27976 3.49997 2.63803 3.82695C2.07354 4.11457 1.6146 4.57351 1.32698 5.138C1 5.77973 1 6.61981 1 8.29997V16.7C1 18.3801 1 19.2202 1.32698 19.8619C1.6146 20.4264 2.07354 20.8854 2.63803 21.173C3.27976 21.5 4.11984 21.5 5.8 21.5Z" stroke="#232323" stroke-width="2" stroke-linecap="round" stroke-linejoin="round"/>
</svg>
